<?xml version="1.0" encoding="utf-8" standalone="no"?>
<!DOCTYPE svg PUBLIC "-//W3C//DTD SVG 1.1//EN"
  "http://www.w3.org/Graphics/SVG/1.1/DTD/svg11.dtd">
<svg xmlns:xlink="http://www.w3.org/1999/xlink" width="515.51639pt" height="422.375854pt" viewBox="0 0 515.51639 422.375854" xmlns="http://www.w3.org/2000/svg" version="1.1">
 <metadata>
  <rdf:RDF xmlns:dc="http://purl.org/dc/elements/1.1/" xmlns:cc="http://creativecommons.org/ns#" xmlns:rdf="http://www.w3.org/1999/02/22-rdf-syntax-ns#">
   <cc:Work>
    <dc:type rdf:resource="http://purl.org/dc/dcmitype/StillImage"/>
    <dc:date>2025-02-14T13:31:36.335947</dc:date>
    <dc:format>image/svg+xml</dc:format>
    <dc:creator>
     <cc:Agent>
      <dc:title>Matplotlib v3.5.1, https://matplotlib.org/</dc:title>
     </cc:Agent>
    </dc:creator>
   </cc:Work>
  </rdf:RDF>
 </metadata>
 <defs>
  <style type="text/css">*{stroke-linejoin: round; stroke-linecap: butt}</style>
 </defs>
 <g id="figure_1">
  <g id="patch_1">
   <path d="M 0 422.375854 
L 515.51639 422.375854 
L 515.51639 0 
L 0 0 
z
" style="fill: #ffffff"/>
  </g>
  <g id="axes_1">
   <g id="patch_2">
    <path d="M 420.415837 205.1244 
C 420.415837 178.660458 415.203018 152.453845 405.075706 128.004351 
C 394.948394 103.554857 380.10354 81.337963 361.390707 62.62513 
C 342.677874 43.912298 320.46098 29.067444 296.011486 18.940132 
C 271.561992 8.812819 245.355379 3.6 218.891437 3.6 
C 192.427495 3.6 166.220882 8.812819 141.771388 18.940132 
C 117.321894 29.067444 95.105 43.912298 76.392167 62.62513 
C 57.679335 81.337963 42.834481 103.554857 32.707169 128.004351 
C 22.579857 152.453845 17.367037 178.660458 17.367037 205.1244 
C 17.367037 231.588342 22.579857 257.794955 32.707169 282.244449 
C 42.834481 306.693943 57.679335 328.910837 76.392167 347.62367 
C 95.105 366.336502 117.321894 381.181356 141.771388 391.308668 
C 166.220882 401.435981 192.427495 406.6488 218.891437 406.6488 
C 245.355379 406.6488 271.561992 401.435981 296.011486 391.308668 
C 320.46098 381.181356 342.677874 366.336502 361.390707 347.62367 
C 380.10354 328.910837 394.948394 306.693943 405.075706 282.244449 
C 415.203018 257.794955 420.415837 231.588342 420.415837 205.1244 
M 218.891437 205.1244 
C 218.891437 205.1244 218.891437 205.1244 218.891437 205.1244 
C 218.891437 205.1244 218.891437 205.1244 218.891437 205.1244 
C 218.891437 205.1244 218.891437 205.1244 218.891437 205.1244 
C 218.891437 205.1244 218.891437 205.1244 218.891437 205.1244 
C 218.891437 205.1244 218.891437 205.1244 218.891437 205.1244 
C 218.891437 205.1244 218.891437 205.1244 218.891437 205.1244 
C 218.891437 205.1244 218.891437 205.1244 218.891437 205.1244 
C 218.891437 205.1244 218.891437 205.1244 218.891437 205.1244 
C 218.891437 205.1244 218.891437 205.1244 218.891437 205.1244 
C 218.891437 205.1244 218.891437 205.1244 218.891437 205.1244 
C 218.891437 205.1244 218.891437 205.1244 218.891437 205.1244 
C 218.891437 205.1244 218.891437 205.1244 218.891437 205.1244 
C 218.891437 205.1244 218.891437 205.1244 218.891437 205.1244 
C 218.891437 205.1244 218.891437 205.1244 218.891437 205.1244 
C 218.891437 205.1244 218.891437 205.1244 218.891437 205.1244 
C 218.891437 205.1244 218.891437 205.1244 218.891437 205.1244 
M 420.415837 205.1244 
z
" style="fill: #ffffff"/>
   </g>
   <g id="patch_3">
    <path d="M 329.076927 205.1244 
L 282.242844 125.684248 
L 193.287304 92.945361 
L 115.222417 155.200031 
L 125.729412 249.988867 
L 198.510889 294.417414 
L 261.487767 258.538509 
z
" clip-path="url(#p9bf21c1285)" style="fill: #ff0000; opacity: 0.2; stroke: #ff0000; stroke-linejoin: miter"/>
   </g>
   <g id="patch_4">
    <path d="M 333.955369 205.1244 
L 290.632625 115.163796 
L 195.052108 100.677476 
L 115.6181 155.390582 
L 115.222417 255.048769 
L 193.287304 317.303439 
L 290.632625 295.085004 
z
" clip-path="url(#p9bf21c1285)" style="fill: #9400d3; opacity: 0.2; stroke: #9400d3; stroke-linejoin: miter"/>
   </g>
   <g id="patch_5">
    <path d="M 293.077393 205.1244 
L 226.767558 195.248057 
L 202.313846 132.493226 
L 180.642053 186.704467 
L 205.582576 211.53361 
L 211.826751 236.07681 
L 244.548876 237.297811 
z
" clip-path="url(#p9bf21c1285)" style="fill: #0000ff; opacity: 0.2; stroke: #0000ff; stroke-linejoin: miter"/>
   </g>
   <g id="matplotlib.axis_1"/>
   <g id="matplotlib.axis_2"/>
   <g id="line2d_1">
    <path d="M 329.076927 205.1244 
L 282.242844 125.684248 
L 193.287304 92.945361 
L 115.222417 155.200031 
L 125.729412 249.988867 
L 198.510889 294.417414 
L 261.487767 258.538509 
L 329.076927 205.1244 
" clip-path="url(#p9bf21c1285)" style="fill: none; stroke: #ff0000; stroke-width: 2; stroke-linecap: square"/>
   </g>
   <g id="line2d_2">
    <path d="M 333.955369 205.1244 
L 290.632625 115.163796 
L 195.052108 100.677476 
L 115.6181 155.390582 
L 115.222417 255.048769 
L 193.287304 317.303439 
L 290.632625 295.085004 
L 333.955369 205.1244 
" clip-path="url(#p9bf21c1285)" style="fill: none; stroke: #9400d3; stroke-width: 2; stroke-linecap: square"/>
   </g>
   <g id="line2d_3">
    <path d="M 293.077393 205.1244 
L 226.767558 195.248057 
L 202.313846 132.493226 
L 180.642053 186.704467 
L 205.582576 211.53361 
L 211.826751 236.07681 
L 244.548876 237.297811 
L 293.077393 205.1244 
" clip-path="url(#p9bf21c1285)" style="fill: none; stroke: #0000ff; stroke-width: 2; stroke-linecap: square"/>
   </g>
   <g id="line2d_4">
    <path d="M 296.900882 205.1244 
L 296.745398 200.201565 
L 296.279565 195.298353 
L 295.50524 190.434311 
L 294.42551 185.628828 
L 293.04468 180.901061 
L 291.368252 176.269854 
L 289.402911 171.75367 
L 287.15649 167.370512 
L 284.637945 163.137852 
L 281.857315 159.072562 
L 278.825684 155.190849 
L 275.555138 151.508185 
L 272.058714 148.039252 
L 268.35035 144.797876 
L 264.444827 141.79698 
L 260.357716 139.048525 
L 256.105308 136.563468 
L 251.704554 134.351715 
L 247.172998 132.422083 
L 242.528703 130.782264 
L 237.790183 129.438794 
L 232.976327 128.397029 
L 228.106325 127.661122 
L 223.199589 127.234007 
L 218.27568 127.117385 
L 213.354225 127.311722 
L 208.454844 127.816244 
L 203.597065 128.628938 
L 198.800255 129.746566 
L 194.083534 131.164671 
L 189.465704 132.877602 
L 184.965174 134.87853 
L 180.599884 137.159479 
L 176.387236 139.711356 
L 172.344021 142.523988 
L 168.486358 145.586164 
L 164.829625 148.885676 
L 161.388398 152.409373 
L 158.176395 156.143208 
L 155.20642 160.072295 
L 152.490312 164.180974 
L 150.038899 168.452865 
L 147.861951 172.87094 
L 145.968149 177.417586 
L 144.365039 182.07468 
L 143.059014 186.823657 
L 142.05528 191.645586 
L 141.357836 196.521245 
L 140.969465 201.4312 
L 140.891713 206.355876 
L 141.124891 211.275643 
L 141.668069 216.17089 
L 142.519082 221.022102 
L 143.674538 225.809941 
L 145.12983 230.515322 
L 146.879158 235.119487 
L 148.915548 239.604083 
L 151.230883 243.951232 
L 153.815932 248.143607 
L 156.660391 252.164494 
L 159.752921 255.997865 
L 163.081195 259.628441 
L 166.631945 263.041747 
L 170.391017 266.224177 
L 174.343425 269.163046 
L 178.473415 271.846638 
L 182.764523 274.264255 
L 187.199644 276.406261 
L 191.761097 278.264117 
L 196.4307 279.830416 
L 201.189837 281.098915 
L 206.019539 282.064557 
L 210.900552 282.723493 
L 215.813418 283.073097 
L 220.738555 283.111974 
L 225.656329 282.83997 
L 230.547135 282.258168 
L 235.391479 281.368889 
L 240.170049 280.175677 
L 244.863795 278.683289 
L 249.454009 276.897673 
L 253.922391 274.825948 
L 258.251129 272.476372 
L 262.422968 269.858312 
L 266.421278 266.982203 
L 270.23012 263.85951 
L 273.83431 260.502683 
L 277.219483 256.925101 
L 280.372142 253.141027 
L 283.279722 249.165544 
L 285.930631 245.0145 
L 288.314302 240.704442 
L 290.421233 236.252552 
L 292.243025 231.676577 
L 293.772416 226.994756 
L 295.00331 222.225754 
L 295.9308 217.38858 
L 296.551188 212.502518 
L 296.862002 207.587045 
L 296.900882 205.1244 
L 296.900882 205.1244 
" clip-path="url(#p9bf21c1285)" style="fill: none; stroke-dasharray: 3.7,1.6; stroke-dashoffset: 0; stroke: #808080"/>
   </g>
   <g id="line2d_5">
    <path d="M 316.403244 205.1244 
L 316.208888 198.970856 
L 315.626597 192.841842 
L 314.658691 186.761789 
L 313.309029 180.754936 
L 311.58299 174.845226 
L 309.487456 169.056218 
L 307.030779 163.410988 
L 304.222753 157.93204 
L 301.074572 152.641215 
L 297.598784 147.559603 
L 293.809246 142.707461 
L 289.721064 138.104131 
L 285.350534 133.767964 
L 280.715078 129.716245 
L 275.833175 125.965125 
L 270.724286 122.529556 
L 265.408776 119.423235 
L 259.907834 116.658544 
L 254.243388 114.246504 
L 248.43802 112.19673 
L 242.51487 110.517393 
L 236.49755 109.215187 
L 230.410047 108.295303 
L 224.276627 107.761408 
L 218.121741 107.615631 
L 211.969922 107.858553 
L 205.845695 108.489204 
L 199.773472 109.505072 
L 193.777459 110.902107 
L 187.881558 112.674739 
L 182.109271 114.815903 
L 176.483608 117.317063 
L 171.026996 120.168249 
L 165.761185 123.358094 
L 160.707167 126.873885 
L 155.885089 130.701605 
L 151.314172 134.825996 
L 147.012638 139.230617 
L 142.997635 143.897909 
L 139.285166 148.809269 
L 135.890031 153.945117 
L 132.825764 159.284981 
L 130.10458 164.807575 
L 127.737326 170.490883 
L 125.73344 176.31225 
L 124.100909 182.248471 
L 122.84624 188.275882 
L 121.974436 194.370457 
L 121.488971 200.5079 
L 121.391782 206.663745 
L 121.683254 212.813454 
L 122.362227 218.932512 
L 123.425993 224.996528 
L 124.870313 230.981327 
L 126.689429 236.863052 
L 128.876089 242.618259 
L 131.421576 248.224003 
L 134.315744 253.65794 
L 137.547055 258.898408 
L 141.102629 263.924517 
L 144.968292 268.716232 
L 149.128635 273.254451 
L 153.567072 277.521083 
L 158.265912 281.499121 
L 163.206422 285.172707 
L 168.36891 288.527197 
L 173.732795 291.549219 
L 179.276695 294.226727 
L 184.978512 296.549046 
L 190.815515 298.50692 
L 196.764437 300.092544 
L 202.801564 301.299596 
L 208.90283 302.123267 
L 215.043914 302.560271 
L 221.200335 302.608867 
L 227.347552 302.268862 
L 233.46106 301.541611 
L 239.516489 300.430012 
L 245.489701 298.938497 
L 251.356885 297.073011 
L 257.094652 294.840991 
L 262.680129 292.251335 
L 268.091052 289.314365 
L 273.305851 286.04179 
L 278.303738 282.446653 
L 283.06479 278.543288 
L 287.570029 274.347253 
L 291.801494 269.875276 
L 295.742319 265.145183 
L 299.376793 260.17583 
L 302.690429 254.987025 
L 305.670018 249.599453 
L 308.303682 244.034591 
L 310.580922 238.314621 
L 312.492661 232.462345 
L 314.031279 226.501092 
L 315.190641 220.454625 
L 315.966126 214.347048 
L 316.354643 208.202706 
L 316.403244 205.1244 
L 316.403244 205.1244 
" clip-path="url(#p9bf21c1285)" style="fill: none; stroke-dasharray: 3.7,1.6; stroke-dashoffset: 0; stroke: #808080"/>
   </g>
   <g id="line2d_6">
    <path d="M 335.905605 205.1244 
L 335.847284 201.430432 
L 335.672378 197.740147 
L 335.381063 194.057223 
L 334.973629 190.38533 
L 334.450481 186.72813 
L 333.812142 183.089267 
L 333.059247 179.47237 
L 332.192547 175.881043 
L 331.212906 172.318866 
L 330.121301 168.789391 
L 328.918819 165.296135 
L 327.60666 161.842581 
L 326.186131 158.432171 
L 324.658648 155.068305 
L 323.025734 151.754336 
L 321.289017 148.493568 
L 319.450227 145.28925 
L 317.511199 142.144578 
L 315.473864 139.062685 
L 313.340254 136.046643 
L 311.112495 133.09946 
L 308.792808 130.224073 
L 306.383506 127.423348 
L 303.886989 124.700078 
L 301.305747 122.056976 
L 298.642353 119.496677 
L 295.899461 117.021734 
L 293.079806 114.634614 
L 290.186198 112.337696 
L 287.221523 110.13327 
L 284.188734 108.023532 
L 281.090856 106.010588 
L 277.930975 104.096442 
L 274.712243 102.283002 
L 271.437868 100.572078 
L 268.111113 98.965373 
L 264.735295 97.46449 
L 261.313778 96.070925 
L 257.849975 94.786067 
L 254.347336 93.611196 
L 250.809354 92.547484 
L 247.239556 91.595991 
L 243.6415 90.757666 
L 240.018772 90.033344 
L 236.374984 89.423747 
L 232.713769 88.929484 
L 229.038774 88.551045 
L 225.353665 88.28881 
L 221.662114 88.143039 
L 217.967801 88.113878 
L 214.274409 88.201355 
L 210.585619 88.405383 
L 206.905109 88.72576 
L 203.236547 89.162165 
L 199.58359 89.714164 
L 195.949879 90.381207 
L 192.339037 91.162628 
L 188.754664 92.057648 
L 185.200331 93.065376 
L 181.679582 94.184807 
L 178.195927 95.414825 
L 174.752837 96.754204 
L 171.353747 98.201608 
L 168.002043 99.755595 
L 164.701066 101.414617 
L 161.454108 103.177018 
L 158.264404 105.041043 
L 155.135135 107.004833 
L 152.069419 109.066431 
L 149.070313 111.223782 
L 146.140806 113.474734 
L 143.283819 115.817046 
L 140.502199 118.24838 
L 137.798719 120.766315 
L 135.176074 123.368339 
L 132.636879 126.05186 
L 130.183663 128.814202 
L 127.818874 131.652611 
L 125.544868 134.564259 
L 123.363911 137.546243 
L 121.278179 140.59559 
L 119.28975 143.709261 
L 117.400605 146.884152 
L 115.612629 150.117098 
L 113.927604 153.404876 
L 112.347209 156.74421 
L 110.873019 160.13177 
L 109.506504 163.564179 
L 108.249027 167.038017 
L 107.101841 170.54982 
L 106.066088 174.096088 
L 105.142803 177.673285 
L 104.332905 181.277847 
L 103.637201 184.906179 
L 103.056385 188.554665 
L 102.591036 192.219668 
L 102.241617 195.897535 
L 102.008478 199.584599 
L 101.891851 203.277186 
L 101.891851 206.971614 
L 102.008478 210.664201 
L 102.241617 214.351265 
L 102.591036 218.029132 
L 103.056385 221.694135 
L 103.637201 225.342621 
L 104.332905 228.970953 
L 105.142803 232.575515 
L 106.066088 236.152712 
L 107.101841 239.69898 
L 108.249027 243.210783 
L 109.506504 246.684621 
L 110.873019 250.11703 
L 112.347209 253.50459 
L 113.927604 256.843924 
L 115.612629 260.131702 
L 117.400605 263.364648 
L 119.28975 266.539539 
L 121.278179 269.65321 
L 123.363911 272.702557 
L 125.544868 275.684541 
L 127.818874 278.596189 
L 130.183663 281.434598 
L 132.636879 284.19694 
L 135.176074 286.880461 
L 137.798719 289.482485 
L 140.502199 292.00042 
L 143.283819 294.431754 
L 146.140806 296.774066 
L 149.070313 299.025018 
L 152.069419 301.182369 
L 155.135135 303.243967 
L 158.264404 305.207757 
L 161.454108 307.071782 
L 164.701066 308.834183 
L 168.002043 310.493205 
L 171.353747 312.047192 
L 174.752837 313.494596 
L 178.195927 314.833975 
L 181.679582 316.063993 
L 185.200331 317.183424 
L 188.754664 318.191152 
L 192.339037 319.086172 
L 195.949879 319.867593 
L 199.58359 320.534636 
L 203.236547 321.086635 
L 206.905109 321.52304 
L 210.585619 321.843417 
L 214.274409 322.047445 
L 217.967801 322.134922 
L 221.662114 322.105761 
L 225.353665 321.95999 
L 229.038774 321.697755 
L 232.713769 321.319316 
L 236.374984 320.825053 
L 240.018772 320.215456 
L 243.6415 319.491134 
L 247.239556 318.652809 
L 250.809354 317.701316 
L 254.347336 316.637604 
L 257.849975 315.462733 
L 261.313778 314.177875 
L 264.735295 312.78431 
L 268.111113 311.283427 
L 271.437868 309.676722 
L 274.712243 307.965798 
L 277.930975 306.152358 
L 281.090856 304.238212 
L 284.188734 302.225268 
L 287.221523 300.11553 
L 290.186198 297.911104 
L 293.079806 295.614186 
L 295.899461 293.227066 
L 298.642353 290.752123 
L 301.305747 288.191824 
L 303.886989 285.548722 
L 306.383506 282.825452 
L 308.792808 280.024727 
L 311.112495 277.14934 
L 313.340254 274.202157 
L 315.473864 271.186115 
L 317.511199 268.104222 
L 319.450227 264.95955 
L 321.289017 261.755232 
L 323.025734 258.494464 
L 324.658648 255.180495 
L 326.186131 251.816629 
L 327.60666 248.406219 
L 328.918819 244.952665 
L 330.121301 241.459409 
L 331.212906 237.929934 
L 332.192547 234.367757 
L 333.059247 230.77643 
L 333.812142 227.159533 
L 334.450481 223.52067 
L 334.973629 219.86347 
L 335.381063 216.191577 
L 335.672378 212.508653 
L 335.847284 208.818368 
L 335.905605 205.1244 
L 335.905605 205.1244 
" clip-path="url(#p9bf21c1285)" style="fill: none; stroke-dasharray: 3.7,1.6; stroke-dashoffset: 0; stroke: #808080"/>
   </g>
   <g id="line2d_7">
    <path d="M 218.891437 205.1244 
L 371.009855 205.1244 
" clip-path="url(#p9bf21c1285)" style="fill: none; stroke-dasharray: 3.7,1.6; stroke-dashoffset: 0; stroke: #808080; stroke-opacity: 0.6"/>
   </g>
   <g id="line2d_8">
    <path d="M 218.891437 205.1244 
L 313.735719 86.193432 
" clip-path="url(#p9bf21c1285)" style="fill: none; stroke-dasharray: 3.7,1.6; stroke-dashoffset: 0; stroke: #808080; stroke-opacity: 0.6"/>
   </g>
   <g id="line2d_9">
    <path d="M 218.891437 205.1244 
L 185.041905 56.819908 
" clip-path="url(#p9bf21c1285)" style="fill: none; stroke-dasharray: 3.7,1.6; stroke-dashoffset: 0; stroke: #808080; stroke-opacity: 0.6"/>
   </g>
   <g id="line2d_10">
    <path d="M 218.891437 205.1244 
L 81.837478 139.122692 
" clip-path="url(#p9bf21c1285)" style="fill: none; stroke-dasharray: 3.7,1.6; stroke-dashoffset: 0; stroke: #808080; stroke-opacity: 0.6"/>
   </g>
   <g id="line2d_11">
    <path d="M 218.891437 205.1244 
L 81.837478 271.126108 
" clip-path="url(#p9bf21c1285)" style="fill: none; stroke-dasharray: 3.7,1.6; stroke-dashoffset: 0; stroke: #808080; stroke-opacity: 0.6"/>
   </g>
   <g id="line2d_12">
    <path d="M 218.891437 205.1244 
L 185.041905 353.428892 
" clip-path="url(#p9bf21c1285)" style="fill: none; stroke-dasharray: 3.7,1.6; stroke-dashoffset: 0; stroke: #808080; stroke-opacity: 0.6"/>
   </g>
   <g id="line2d_13">
    <path d="M 218.891437 205.1244 
L 313.735719 324.055368 
" clip-path="url(#p9bf21c1285)" style="fill: none; stroke-dasharray: 3.7,1.6; stroke-dashoffset: 0; stroke: #808080; stroke-opacity: 0.6"/>
   </g>
   <g id="line2d_14">
    <path d="M 420.415837 205.1244 
L 420.284651 197.854103 
L 419.891263 190.593272 
L 419.236186 183.35136 
L 418.320273 176.137795 
L 417.144715 168.961968 
L 415.711044 161.833223 
L 414.021126 154.76084 
L 412.077162 147.754028 
L 409.881681 140.821908 
L 407.437543 133.973506 
L 404.74793 127.217738 
L 401.816342 120.563399 
L 398.646598 114.019154 
L 395.242824 107.593523 
L 391.609452 101.29487 
L 387.751211 95.131397 
L 383.673125 89.111128 
L 379.380503 83.241902 
L 374.878935 77.531358 
L 370.174281 71.986933 
L 365.272665 66.615845 
L 360.180471 61.425086 
L 354.904327 56.421415 
L 349.451102 51.611346 
L 343.827897 47.001142 
L 338.042032 42.596804 
L 332.101041 38.404067 
L 326.012658 34.42839 
L 319.784809 30.674948 
L 313.425604 27.148629 
L 306.943321 23.854023 
L 300.3464 20.79542 
L 293.643429 17.976802 
L 286.843136 15.401838 
L 279.954374 13.073882 
L 272.986112 10.995963 
L 265.947422 9.170788 
L 258.847468 7.600732 
L 251.695494 6.28784 
L 244.500811 5.233821 
L 237.272786 4.440046 
L 230.02083 3.907551 
L 222.754384 3.637027 
L 215.482908 3.628828 
L 208.215871 3.882963 
L 200.962732 4.399102 
L 193.732935 5.176573 
L 186.535893 6.214364 
L 179.380977 7.511123 
L 174.048039 8.652637 
L 174.048039 8.652637 
" clip-path="url(#p9bf21c1285)" style="fill: none; stroke: #000000; stroke-opacity: 0.7; stroke-width: 2; stroke-linecap: square"/>
   </g>
   <g id="line2d_15">
    <path d="M 37.324227 117.68624 
L 34.654426 123.461633 
L 32.168276 129.31843 
L 29.868257 135.250792 
L 27.756659 141.252806 
L 25.835589 147.318488 
L 24.106962 153.441792 
L 22.5725 159.616615 
L 21.233732 165.8368 
L 20.091994 172.096149 
L 19.148424 178.38842 
L 18.403962 184.707343 
L 17.85935 191.046618 
L 17.515132 197.399926 
L 17.37165 203.760934 
L 17.429047 210.123301 
L 17.687266 216.480685 
L 18.146049 222.826749 
L 18.804941 229.155166 
L 19.663282 235.45963 
L 20.720219 241.733854 
L 21.974697 247.971586 
L 23.425466 254.166606 
L 25.07108 260.31274 
L 26.909898 266.403861 
L 28.940087 272.433898 
L 31.159624 278.396839 
L 33.566296 284.28674 
L 36.157705 290.09773 
L 37.324227 292.56256 
L 37.324227 292.56256 
" clip-path="url(#p9bf21c1285)" style="fill: none; stroke: #000000; stroke-opacity: 0.7; stroke-width: 2; stroke-linecap: square"/>
   </g>
   <g id="line2d_16">
    <path d="M 174.048039 401.596163 
L 180.272718 402.91388 
L 186.535893 404.034436 
L 192.831321 404.956715 
L 199.152726 405.679797 
L 205.493807 406.20296 
L 211.848243 406.525684 
L 218.2097 406.647647 
L 224.571837 406.568727 
L 230.928311 406.289003 
L 237.272786 405.808754 
L 243.598939 405.128458 
L 249.900462 404.248794 
L 256.171075 403.170638 
L 262.404527 401.895065 
L 268.594604 400.423348 
L 274.735136 398.756952 
L 280.820002 396.897538 
L 286.843136 394.846962 
L 292.798534 392.607265 
L 298.68026 390.180682 
L 304.482451 387.56963 
L 310.199323 384.776714 
L 315.825177 381.804715 
L 321.354406 378.656598 
L 326.781497 375.335501 
L 332.101041 371.844733 
L 337.307735 368.187775 
L 342.396389 364.368271 
L 344.539845 362.68252 
L 344.539845 362.68252 
" clip-path="url(#p9bf21c1285)" style="fill: none; stroke: #000000; stroke-opacity: 0.7; stroke-width: 2; stroke-linecap: square"/>
   </g>
   <g id="text_1">
    <!-- 46 -->
    <g style="fill: #808080" transform="translate(292.501197 202.129712)scale(0.14 -0.14)">
     <defs>
      <path id="TimesNewRomanPSMT-34" d="M 2978 1563 
L 2978 1119 
L 2409 1119 
L 2409 0 
L 1894 0 
L 1894 1119 
L 100 1119 
L 100 1519 
L 2066 4325 
L 2409 4325 
L 2409 1563 
L 2978 1563 
z
M 1894 1563 
L 1894 3666 
L 406 1563 
L 1894 1563 
z
" transform="scale(0.015625)"/>
      <path id="TimesNewRomanPSMT-36" d="M 2869 4325 
L 2869 4209 
Q 2456 4169 2195 4045 
Q 1934 3922 1679 3669 
Q 1425 3416 1258 3105 
Q 1091 2794 978 2366 
Q 1428 2675 1881 2675 
Q 2316 2675 2634 2325 
Q 2953 1975 2953 1425 
Q 2953 894 2631 456 
Q 2244 -75 1606 -75 
Q 1172 -75 869 213 
Q 275 772 275 1663 
Q 275 2231 503 2743 
Q 731 3256 1154 3653 
Q 1578 4050 1965 4187 
Q 2353 4325 2688 4325 
L 2869 4325 
z
M 925 2138 
Q 869 1716 869 1456 
Q 869 1156 980 804 
Q 1091 453 1309 247 
Q 1469 100 1697 100 
Q 1969 100 2183 356 
Q 2397 613 2397 1088 
Q 2397 1622 2184 2012 
Q 1972 2403 1581 2403 
Q 1463 2403 1327 2353 
Q 1191 2303 925 2138 
z
" transform="scale(0.015625)"/>
     </defs>
     <use xlink:href="#TimesNewRomanPSMT-34"/>
     <use xlink:href="#TimesNewRomanPSMT-36" x="50"/>
    </g>
   </g>
   <g id="text_2">
    <!-- 28 -->
    <g style="fill: #808080" transform="translate(262.1508 139.106464)scale(0.14 -0.14)">
     <defs>
      <path id="TimesNewRomanPSMT-32" d="M 2934 816 
L 2638 0 
L 138 0 
L 138 116 
Q 1241 1122 1691 1759 
Q 2141 2397 2141 2925 
Q 2141 3328 1894 3587 
Q 1647 3847 1303 3847 
Q 991 3847 742 3664 
Q 494 3481 375 3128 
L 259 3128 
Q 338 3706 661 4015 
Q 984 4325 1469 4325 
Q 1984 4325 2329 3994 
Q 2675 3663 2675 3213 
Q 2675 2891 2525 2569 
Q 2294 2063 1775 1497 
Q 997 647 803 472 
L 1909 472 
Q 2247 472 2383 497 
Q 2519 522 2628 598 
Q 2738 675 2819 816 
L 2934 816 
z
" transform="scale(0.015625)"/>
      <path id="TimesNewRomanPSMT-38" d="M 1228 2134 
Q 725 2547 579 2797 
Q 434 3047 434 3316 
Q 434 3728 753 4026 
Q 1072 4325 1600 4325 
Q 2113 4325 2425 4047 
Q 2738 3769 2738 3413 
Q 2738 3175 2569 2928 
Q 2400 2681 1866 2347 
Q 2416 1922 2594 1678 
Q 2831 1359 2831 1006 
Q 2831 559 2490 242 
Q 2150 -75 1597 -75 
Q 994 -75 656 303 
Q 388 606 388 966 
Q 388 1247 577 1523 
Q 766 1800 1228 2134 
z
M 1719 2469 
Q 2094 2806 2194 3001 
Q 2294 3197 2294 3444 
Q 2294 3772 2109 3958 
Q 1925 4144 1606 4144 
Q 1288 4144 1088 3959 
Q 888 3775 888 3528 
Q 888 3366 970 3203 
Q 1053 3041 1206 2894 
L 1719 2469 
z
M 1375 2016 
Q 1116 1797 991 1539 
Q 866 1281 866 981 
Q 866 578 1086 336 
Q 1306 94 1647 94 
Q 1984 94 2187 284 
Q 2391 475 2391 747 
Q 2391 972 2272 1150 
Q 2050 1481 1375 2016 
z
" transform="scale(0.015625)"/>
     </defs>
     <use xlink:href="#TimesNewRomanPSMT-32"/>
     <use xlink:href="#TimesNewRomanPSMT-38" x="50"/>
    </g>
   </g>
   <g id="text_3">
    <!-- 60 -->
    <g style="fill: #808080" transform="translate(193.954078 123.541007)scale(0.14 -0.14)">
     <defs>
      <path id="TimesNewRomanPSMT-30" d="M 231 2094 
Q 231 2819 450 3342 
Q 669 3866 1031 4122 
Q 1313 4325 1613 4325 
Q 2100 4325 2488 3828 
Q 2972 3213 2972 2159 
Q 2972 1422 2759 906 
Q 2547 391 2217 158 
Q 1888 -75 1581 -75 
Q 975 -75 572 641 
Q 231 1244 231 2094 
z
M 844 2016 
Q 844 1141 1059 588 
Q 1238 122 1591 122 
Q 1759 122 1940 273 
Q 2122 425 2216 781 
Q 2359 1319 2359 2297 
Q 2359 3022 2209 3506 
Q 2097 3866 1919 4016 
Q 1791 4119 1609 4119 
Q 1397 4119 1231 3928 
Q 1006 3669 925 3112 
Q 844 2556 844 2016 
z
" transform="scale(0.015625)"/>
     </defs>
     <use xlink:href="#TimesNewRomanPSMT-36"/>
     <use xlink:href="#TimesNewRomanPSMT-30" x="50"/>
    </g>
   </g>
   <g id="text_4">
    <!-- 53 -->
    <g style="fill: #808080" transform="translate(139.264553 167.154448)scale(0.14 -0.14)">
     <defs>
      <path id="TimesNewRomanPSMT-35" d="M 2778 4238 
L 2534 3706 
L 1259 3706 
L 981 3138 
Q 1809 3016 2294 2522 
Q 2709 2097 2709 1522 
Q 2709 1188 2573 903 
Q 2438 619 2231 419 
Q 2025 219 1772 97 
Q 1413 -75 1034 -75 
Q 653 -75 479 54 
Q 306 184 306 341 
Q 306 428 378 495 
Q 450 563 559 563 
Q 641 563 702 538 
Q 763 513 909 409 
Q 1144 247 1384 247 
Q 1750 247 2026 523 
Q 2303 800 2303 1197 
Q 2303 1581 2056 1914 
Q 1809 2247 1375 2428 
Q 1034 2569 447 2591 
L 1259 4238 
L 2778 4238 
z
" transform="scale(0.015625)"/>
      <path id="TimesNewRomanPSMT-33" d="M 325 3431 
Q 506 3859 782 4092 
Q 1059 4325 1472 4325 
Q 1981 4325 2253 3994 
Q 2459 3747 2459 3466 
Q 2459 3003 1878 2509 
Q 2269 2356 2469 2072 
Q 2669 1788 2669 1403 
Q 2669 853 2319 450 
Q 1863 -75 997 -75 
Q 569 -75 414 31 
Q 259 138 259 259 
Q 259 350 332 419 
Q 406 488 509 488 
Q 588 488 669 463 
Q 722 447 909 348 
Q 1097 250 1169 231 
Q 1284 197 1416 197 
Q 1734 197 1970 444 
Q 2206 691 2206 1028 
Q 2206 1275 2097 1509 
Q 2016 1684 1919 1775 
Q 1784 1900 1550 2001 
Q 1316 2103 1072 2103 
L 972 2103 
L 972 2197 
Q 1219 2228 1467 2375 
Q 1716 2522 1828 2728 
Q 1941 2934 1941 3181 
Q 1941 3503 1739 3701 
Q 1538 3900 1238 3900 
Q 753 3900 428 3381 
L 325 3431 
z
" transform="scale(0.015625)"/>
     </defs>
     <use xlink:href="#TimesNewRomanPSMT-35"/>
     <use xlink:href="#TimesNewRomanPSMT-33" x="50"/>
    </g>
   </g>
   <g id="text_5">
    <!-- 20 -->
    <g style="fill: #808080" transform="translate(139.264553 237.104977)scale(0.14 -0.14)">
     <use xlink:href="#TimesNewRomanPSMT-32"/>
     <use xlink:href="#TimesNewRomanPSMT-30" x="50"/>
    </g>
   </g>
   <g id="text_6">
    <!-- 41 -->
    <g style="fill: #808080" transform="translate(193.954078 280.718418)scale(0.14 -0.14)">
     <defs>
      <path id="TimesNewRomanPSMT-31" d="M 750 3822 
L 1781 4325 
L 1884 4325 
L 1884 747 
Q 1884 391 1914 303 
Q 1944 216 2037 169 
Q 2131 122 2419 116 
L 2419 0 
L 825 0 
L 825 116 
Q 1125 122 1212 167 
Q 1300 213 1334 289 
Q 1369 366 1369 747 
L 1369 3034 
Q 1369 3497 1338 3628 
Q 1316 3728 1258 3775 
Q 1200 3822 1119 3822 
Q 1003 3822 797 3725 
L 750 3822 
z
" transform="scale(0.015625)"/>
     </defs>
     <use xlink:href="#TimesNewRomanPSMT-34"/>
     <use xlink:href="#TimesNewRomanPSMT-31" x="50"/>
    </g>
   </g>
   <g id="text_7">
    <!-- 39 -->
    <g style="fill: #808080" transform="translate(262.1508 265.152961)scale(0.14 -0.14)">
     <defs>
      <path id="TimesNewRomanPSMT-39" d="M 338 -88 
L 338 28 
Q 744 34 1094 217 
Q 1444 400 1770 856 
Q 2097 1313 2225 1859 
Q 1734 1544 1338 1544 
Q 891 1544 572 1889 
Q 253 2234 253 2806 
Q 253 3363 572 3797 
Q 956 4325 1575 4325 
Q 2097 4325 2469 3894 
Q 2925 3359 2925 2575 
Q 2925 1869 2578 1258 
Q 2231 647 1613 244 
Q 1109 -88 516 -88 
L 338 -88 
z
M 2275 2091 
Q 2331 2497 2331 2741 
Q 2331 3044 2228 3395 
Q 2125 3747 1936 3934 
Q 1747 4122 1506 4122 
Q 1228 4122 1018 3872 
Q 809 3622 809 3128 
Q 809 2469 1088 2097 
Q 1291 1828 1588 1828 
Q 1731 1828 1928 1897 
Q 2125 1966 2275 2091 
z
" transform="scale(0.015625)"/>
     </defs>
     <use xlink:href="#TimesNewRomanPSMT-33"/>
     <use xlink:href="#TimesNewRomanPSMT-39" x="50"/>
    </g>
   </g>
   <g id="text_8">
    <!-- 58 -->
    <g style="fill: #808080" transform="translate(312.003558 202.129712)scale(0.14 -0.14)">
     <use xlink:href="#TimesNewRomanPSMT-35"/>
     <use xlink:href="#TimesNewRomanPSMT-38" x="50"/>
    </g>
   </g>
   <g id="text_9">
    <!-- 36 -->
    <g style="fill: #808080" transform="translate(274.310324 123.858904)scale(0.14 -0.14)">
     <use xlink:href="#TimesNewRomanPSMT-33"/>
     <use xlink:href="#TimesNewRomanPSMT-36" x="50"/>
    </g>
   </g>
   <g id="text_10">
    <!-- 75 -->
    <g style="fill: #808080" transform="translate(189.614394 104.527611)scale(0.14 -0.14)">
     <defs>
      <path id="TimesNewRomanPSMT-37" d="M 644 4238 
L 2916 4238 
L 2916 4119 
L 1503 -88 
L 1153 -88 
L 2419 3728 
L 1253 3728 
Q 900 3728 750 3644 
Q 488 3500 328 3200 
L 238 3234 
L 644 4238 
z
" transform="scale(0.015625)"/>
     </defs>
     <use xlink:href="#TimesNewRomanPSMT-37"/>
     <use xlink:href="#TimesNewRomanPSMT-35" x="50"/>
    </g>
   </g>
   <g id="text_11">
    <!-- 67 -->
    <g style="fill: #808080" transform="translate(121.693533 158.692691)scale(0.14 -0.14)">
     <use xlink:href="#TimesNewRomanPSMT-36"/>
     <use xlink:href="#TimesNewRomanPSMT-37" x="50"/>
    </g>
   </g>
   <g id="text_12">
    <!-- 25 -->
    <g style="fill: #808080" transform="translate(121.693533 245.566734)scale(0.14 -0.14)">
     <use xlink:href="#TimesNewRomanPSMT-32"/>
     <use xlink:href="#TimesNewRomanPSMT-35" x="50"/>
    </g>
   </g>
   <g id="text_13">
    <!-- 51 -->
    <g style="fill: #808080" transform="translate(189.614394 299.731814)scale(0.14 -0.14)">
     <use xlink:href="#TimesNewRomanPSMT-35"/>
     <use xlink:href="#TimesNewRomanPSMT-31" x="50"/>
    </g>
   </g>
   <g id="text_14">
    <!-- 49 -->
    <g style="fill: #808080" transform="translate(274.310324 280.400521)scale(0.14 -0.14)">
     <use xlink:href="#TimesNewRomanPSMT-34"/>
     <use xlink:href="#TimesNewRomanPSMT-39" x="50"/>
    </g>
   </g>
   <g id="text_15">
    <!-- 70 -->
    <g style="fill: #808080" transform="translate(331.50592 202.129712)scale(0.14 -0.14)">
     <use xlink:href="#TimesNewRomanPSMT-37"/>
     <use xlink:href="#TimesNewRomanPSMT-30" x="50"/>
    </g>
   </g>
   <g id="text_16">
    <!-- 43 -->
    <g style="fill: #808080" transform="translate(286.469847 108.611344)scale(0.14 -0.14)">
     <use xlink:href="#TimesNewRomanPSMT-34"/>
     <use xlink:href="#TimesNewRomanPSMT-33" x="50"/>
    </g>
   </g>
   <g id="text_17">
    <!-- 90 -->
    <g style="fill: #808080" transform="translate(185.274711 85.514215)scale(0.14 -0.14)">
     <use xlink:href="#TimesNewRomanPSMT-39"/>
     <use xlink:href="#TimesNewRomanPSMT-30" x="50"/>
    </g>
   </g>
   <g id="text_18">
    <!-- 80 -->
    <g style="fill: #808080" transform="translate(104.122512 150.230934)scale(0.14 -0.14)">
     <use xlink:href="#TimesNewRomanPSMT-38"/>
     <use xlink:href="#TimesNewRomanPSMT-30" x="50"/>
    </g>
   </g>
   <g id="text_19">
    <!-- 30 -->
    <g style="fill: #808080" transform="translate(104.122512 254.028491)scale(0.14 -0.14)">
     <use xlink:href="#TimesNewRomanPSMT-33"/>
     <use xlink:href="#TimesNewRomanPSMT-30" x="50"/>
    </g>
   </g>
   <g id="text_20">
    <!-- 61 -->
    <g style="fill: #808080" transform="translate(185.274711 318.74521)scale(0.14 -0.14)">
     <use xlink:href="#TimesNewRomanPSMT-36"/>
     <use xlink:href="#TimesNewRomanPSMT-31" x="50"/>
    </g>
   </g>
   <g id="text_21">
    <!-- 59 -->
    <g style="fill: #808080" transform="translate(286.469847 295.648081)scale(0.14 -0.14)">
     <use xlink:href="#TimesNewRomanPSMT-35"/>
     <use xlink:href="#TimesNewRomanPSMT-39" x="50"/>
    </g>
   </g>
   <g id="text_22">
    <!-- MMLU -->
    <g transform="translate(359.631271 208.487681)scale(0.14 -0.14)">
     <defs>
      <path id="TimesNewRomanPSMT-4d" d="M 2619 0 
L 981 3566 
L 981 734 
Q 981 344 1066 247 
Q 1181 116 1431 116 
L 1581 116 
L 1581 0 
L 106 0 
L 106 116 
L 256 116 
Q 525 116 638 278 
Q 706 378 706 734 
L 706 3503 
Q 706 3784 644 3909 
Q 600 4000 483 4061 
Q 366 4122 106 4122 
L 106 4238 
L 1306 4238 
L 2844 922 
L 4356 4238 
L 5556 4238 
L 5556 4122 
L 5409 4122 
Q 5138 4122 5025 3959 
Q 4956 3859 4956 3503 
L 4956 734 
Q 4956 344 5044 247 
Q 5159 116 5409 116 
L 5556 116 
L 5556 0 
L 3756 0 
L 3756 116 
L 3906 116 
Q 4178 116 4288 278 
Q 4356 378 4356 734 
L 4356 3566 
L 2722 0 
L 2619 0 
z
" transform="scale(0.015625)"/>
      <path id="TimesNewRomanPSMT-4c" d="M 3669 1172 
L 3772 1150 
L 3409 0 
L 128 0 
L 128 116 
L 288 116 
Q 556 116 672 291 
Q 738 391 738 753 
L 738 3488 
Q 738 3884 650 3984 
Q 528 4122 288 4122 
L 128 4122 
L 128 4238 
L 2047 4238 
L 2047 4122 
Q 1709 4125 1573 4059 
Q 1438 3994 1388 3894 
Q 1338 3794 1338 3416 
L 1338 753 
Q 1338 494 1388 397 
Q 1425 331 1503 300 
Q 1581 269 1991 269 
L 2300 269 
Q 2788 269 2984 341 
Q 3181 413 3343 595 
Q 3506 778 3669 1172 
z
" transform="scale(0.015625)"/>
      <path id="TimesNewRomanPSMT-55" d="M 3053 4122 
L 3053 4238 
L 4553 4238 
L 4553 4122 
L 4394 4122 
Q 4144 4122 4009 3913 
Q 3944 3816 3944 3463 
L 3944 1744 
Q 3944 1106 3817 754 
Q 3691 403 3320 151 
Q 2950 -100 2313 -100 
Q 1619 -100 1259 140 
Q 900 381 750 788 
Q 650 1066 650 1831 
L 650 3488 
Q 650 3878 542 4000 
Q 434 4122 194 4122 
L 34 4122 
L 34 4238 
L 1866 4238 
L 1866 4122 
L 1703 4122 
Q 1441 4122 1328 3956 
Q 1250 3844 1250 3488 
L 1250 1641 
Q 1250 1394 1295 1075 
Q 1341 756 1459 578 
Q 1578 400 1801 284 
Q 2025 169 2350 169 
Q 2766 169 3094 350 
Q 3422 531 3542 814 
Q 3663 1097 3663 1772 
L 3663 3488 
Q 3663 3884 3575 3984 
Q 3453 4122 3213 4122 
L 3053 4122 
z
" transform="scale(0.015625)"/>
     </defs>
     <use xlink:href="#TimesNewRomanPSMT-4d"/>
     <use xlink:href="#TimesNewRomanPSMT-4d" x="88.916016"/>
     <use xlink:href="#TimesNewRomanPSMT-4c" x="177.832031"/>
     <use xlink:href="#TimesNewRomanPSMT-55" x="238.916016"/>
    </g>
   </g>
   <g id="text_23">
    <!-- MMLU-pro -->
    <g transform="translate(286.779392 81.424681)scale(0.14 -0.14)">
     <defs>
      <path id="TimesNewRomanPSMT-2d" d="M 259 1672 
L 1875 1672 
L 1875 1200 
L 259 1200 
L 259 1672 
z
" transform="scale(0.015625)"/>
      <path id="TimesNewRomanPSMT-70" d="M -6 2578 
L 875 2934 
L 994 2934 
L 994 2266 
Q 1216 2644 1439 2795 
Q 1663 2947 1909 2947 
Q 2341 2947 2628 2609 
Q 2981 2197 2981 1534 
Q 2981 794 2556 309 
Q 2206 -88 1675 -88 
Q 1444 -88 1275 -22 
Q 1150 25 994 166 
L 994 -706 
Q 994 -1000 1030 -1079 
Q 1066 -1159 1155 -1206 
Q 1244 -1253 1478 -1253 
L 1478 -1369 
L -22 -1369 
L -22 -1253 
L 56 -1253 
Q 228 -1256 350 -1188 
Q 409 -1153 442 -1076 
Q 475 -1000 475 -688 
L 475 2019 
Q 475 2297 450 2372 
Q 425 2447 370 2484 
Q 316 2522 222 2522 
Q 147 2522 31 2478 
L -6 2578 
z
M 994 2081 
L 994 1013 
Q 994 666 1022 556 
Q 1066 375 1236 237 
Q 1406 100 1666 100 
Q 1978 100 2172 344 
Q 2425 663 2425 1241 
Q 2425 1897 2138 2250 
Q 1938 2494 1663 2494 
Q 1513 2494 1366 2419 
Q 1253 2363 994 2081 
z
" transform="scale(0.015625)"/>
      <path id="TimesNewRomanPSMT-72" d="M 1038 2947 
L 1038 2303 
Q 1397 2947 1775 2947 
Q 1947 2947 2059 2842 
Q 2172 2738 2172 2600 
Q 2172 2478 2090 2393 
Q 2009 2309 1897 2309 
Q 1788 2309 1652 2417 
Q 1516 2525 1450 2525 
Q 1394 2525 1328 2463 
Q 1188 2334 1038 2041 
L 1038 669 
Q 1038 431 1097 309 
Q 1138 225 1241 169 
Q 1344 113 1538 113 
L 1538 0 
L 72 0 
L 72 113 
Q 291 113 397 181 
Q 475 231 506 341 
Q 522 394 522 644 
L 522 1753 
Q 522 2253 501 2348 
Q 481 2444 426 2487 
Q 372 2531 291 2531 
Q 194 2531 72 2484 
L 41 2597 
L 906 2947 
L 1038 2947 
z
" transform="scale(0.015625)"/>
      <path id="TimesNewRomanPSMT-6f" d="M 1600 2947 
Q 2250 2947 2644 2453 
Q 2978 2031 2978 1484 
Q 2978 1100 2793 706 
Q 2609 313 2286 112 
Q 1963 -88 1566 -88 
Q 919 -88 538 428 
Q 216 863 216 1403 
Q 216 1797 411 2186 
Q 606 2575 925 2761 
Q 1244 2947 1600 2947 
z
M 1503 2744 
Q 1338 2744 1170 2645 
Q 1003 2547 900 2300 
Q 797 2053 797 1666 
Q 797 1041 1045 587 
Q 1294 134 1700 134 
Q 2003 134 2200 384 
Q 2397 634 2397 1244 
Q 2397 2006 2069 2444 
Q 1847 2744 1503 2744 
z
" transform="scale(0.015625)"/>
     </defs>
     <use xlink:href="#TimesNewRomanPSMT-4d"/>
     <use xlink:href="#TimesNewRomanPSMT-4d" x="88.916016"/>
     <use xlink:href="#TimesNewRomanPSMT-4c" x="177.832031"/>
     <use xlink:href="#TimesNewRomanPSMT-55" x="238.916016"/>
     <use xlink:href="#TimesNewRomanPSMT-2d" x="311.132812"/>
     <use xlink:href="#TimesNewRomanPSMT-70" x="344.433594"/>
     <use xlink:href="#TimesNewRomanPSMT-72" x="394.433594"/>
     <use xlink:href="#TimesNewRomanPSMT-6f" x="427.734375"/>
    </g>
   </g>
   <g id="text_24">
    <!-- ARC-C -->
    <g transform="translate(161.333657 50.042711)scale(0.14 -0.14)">
     <defs>
      <path id="TimesNewRomanPSMT-41" d="M 2928 1419 
L 1288 1419 
L 1000 750 
Q 894 503 894 381 
Q 894 284 986 211 
Q 1078 138 1384 116 
L 1384 0 
L 50 0 
L 50 116 
Q 316 163 394 238 
Q 553 388 747 847 
L 2238 4334 
L 2347 4334 
L 3822 809 
Q 4000 384 4145 257 
Q 4291 131 4550 116 
L 4550 0 
L 2878 0 
L 2878 116 
Q 3131 128 3220 200 
Q 3309 272 3309 375 
Q 3309 513 3184 809 
L 2928 1419 
z
M 2841 1650 
L 2122 3363 
L 1384 1650 
L 2841 1650 
z
" transform="scale(0.015625)"/>
      <path id="TimesNewRomanPSMT-52" d="M 4325 0 
L 3194 0 
L 1759 1981 
Q 1600 1975 1500 1975 
Q 1459 1975 1412 1976 
Q 1366 1978 1316 1981 
L 1316 750 
Q 1316 350 1403 253 
Q 1522 116 1759 116 
L 1925 116 
L 1925 0 
L 109 0 
L 109 116 
L 269 116 
Q 538 116 653 291 
Q 719 388 719 750 
L 719 3488 
Q 719 3888 631 3984 
Q 509 4122 269 4122 
L 109 4122 
L 109 4238 
L 1653 4238 
Q 2328 4238 2648 4139 
Q 2969 4041 3192 3777 
Q 3416 3513 3416 3147 
Q 3416 2756 3161 2468 
Q 2906 2181 2372 2063 
L 3247 847 
Q 3547 428 3762 290 
Q 3978 153 4325 116 
L 4325 0 
z
M 1316 2178 
Q 1375 2178 1419 2176 
Q 1463 2175 1491 2175 
Q 2097 2175 2405 2437 
Q 2713 2700 2713 3106 
Q 2713 3503 2464 3751 
Q 2216 4000 1806 4000 
Q 1625 4000 1316 3941 
L 1316 2178 
z
" transform="scale(0.015625)"/>
      <path id="TimesNewRomanPSMT-43" d="M 3853 4334 
L 3950 2894 
L 3853 2894 
Q 3659 3541 3300 3825 
Q 2941 4109 2438 4109 
Q 2016 4109 1675 3895 
Q 1334 3681 1139 3212 
Q 944 2744 944 2047 
Q 944 1472 1128 1050 
Q 1313 628 1683 403 
Q 2053 178 2528 178 
Q 2941 178 3256 354 
Q 3572 531 3950 1056 
L 4047 994 
Q 3728 428 3303 165 
Q 2878 -97 2294 -97 
Q 1241 -97 663 684 
Q 231 1266 231 2053 
Q 231 2688 515 3219 
Q 800 3750 1298 4042 
Q 1797 4334 2388 4334 
Q 2847 4334 3294 4109 
Q 3425 4041 3481 4041 
Q 3566 4041 3628 4100 
Q 3709 4184 3744 4334 
L 3853 4334 
z
" transform="scale(0.015625)"/>
     </defs>
     <use xlink:href="#TimesNewRomanPSMT-41"/>
     <use xlink:href="#TimesNewRomanPSMT-52" x="72.216797"/>
     <use xlink:href="#TimesNewRomanPSMT-43" x="138.916016"/>
     <use xlink:href="#TimesNewRomanPSMT-2d" x="205.615234"/>
     <use xlink:href="#TimesNewRomanPSMT-43" x="238.916016"/>
    </g>
   </g>
   <g id="text_25">
    <!-- GSM8K -->
    <g transform="translate(48.738455 137.973036)scale(0.14 -0.14)">
     <defs>
      <path id="TimesNewRomanPSMT-47" d="M 3928 4334 
L 4038 2997 
L 3928 2997 
Q 3763 3497 3500 3750 
Q 3122 4116 2528 4116 
Q 1719 4116 1297 3475 
Q 944 2934 944 2188 
Q 944 1581 1178 1081 
Q 1413 581 1792 348 
Q 2172 116 2572 116 
Q 2806 116 3025 175 
Q 3244 234 3447 350 
L 3447 1575 
Q 3447 1894 3398 1992 
Q 3350 2091 3248 2142 
Q 3147 2194 2891 2194 
L 2891 2313 
L 4531 2313 
L 4531 2194 
L 4453 2194 
Q 4209 2194 4119 2031 
Q 4056 1916 4056 1575 
L 4056 278 
Q 3697 84 3347 -6 
Q 2997 -97 2569 -97 
Q 1341 -97 703 691 
Q 225 1281 225 2053 
Q 225 2613 494 3125 
Q 813 3734 1369 4063 
Q 1834 4334 2469 4334 
Q 2700 4334 2889 4296 
Q 3078 4259 3425 4131 
Q 3600 4066 3659 4066 
Q 3719 4066 3761 4120 
Q 3803 4175 3813 4334 
L 3928 4334 
z
" transform="scale(0.015625)"/>
      <path id="TimesNewRomanPSMT-53" d="M 2934 4334 
L 2934 2869 
L 2819 2869 
Q 2763 3291 2617 3541 
Q 2472 3791 2203 3937 
Q 1934 4084 1647 4084 
Q 1322 4084 1109 3886 
Q 897 3688 897 3434 
Q 897 3241 1031 3081 
Q 1225 2847 1953 2456 
Q 2547 2138 2764 1967 
Q 2981 1797 3098 1565 
Q 3216 1334 3216 1081 
Q 3216 600 2842 251 
Q 2469 -97 1881 -97 
Q 1697 -97 1534 -69 
Q 1438 -53 1133 45 
Q 828 144 747 144 
Q 669 144 623 97 
Q 578 50 556 -97 
L 441 -97 
L 441 1356 
L 556 1356 
Q 638 900 775 673 
Q 913 447 1195 297 
Q 1478 147 1816 147 
Q 2206 147 2432 353 
Q 2659 559 2659 841 
Q 2659 997 2573 1156 
Q 2488 1316 2306 1453 
Q 2184 1547 1640 1851 
Q 1097 2156 867 2337 
Q 638 2519 519 2737 
Q 400 2956 400 3219 
Q 400 3675 750 4004 
Q 1100 4334 1641 4334 
Q 1978 4334 2356 4169 
Q 2531 4091 2603 4091 
Q 2684 4091 2736 4139 
Q 2788 4188 2819 4334 
L 2934 4334 
z
" transform="scale(0.015625)"/>
      <path id="TimesNewRomanPSMT-4b" d="M 1913 2350 
L 3475 797 
Q 3859 413 4131 273 
Q 4403 134 4675 116 
L 4675 0 
L 2659 0 
L 2659 116 
Q 2841 116 2920 177 
Q 3000 238 3000 313 
Q 3000 388 2970 447 
Q 2941 506 2775 669 
L 1313 2116 
L 1313 750 
Q 1313 428 1353 325 
Q 1384 247 1484 191 
Q 1619 116 1769 116 
L 1913 116 
L 1913 0 
L 106 0 
L 106 116 
L 256 116 
Q 519 116 638 269 
Q 713 369 713 750 
L 713 3488 
Q 713 3809 672 3916 
Q 641 3991 544 4047 
Q 406 4122 256 4122 
L 106 4122 
L 106 4238 
L 1913 4238 
L 1913 4122 
L 1769 4122 
Q 1622 4122 1484 4050 
Q 1388 4000 1350 3900 
Q 1313 3800 1313 3488 
L 1313 2191 
Q 1375 2250 1741 2588 
Q 2669 3438 2863 3722 
Q 2947 3847 2947 3941 
Q 2947 4013 2881 4067 
Q 2816 4122 2659 4122 
L 2563 4122 
L 2563 4238 
L 4119 4238 
L 4119 4122 
Q 3981 4119 3868 4084 
Q 3756 4050 3593 3951 
Q 3431 3853 3194 3634 
Q 3125 3572 2559 2994 
L 1913 2350 
z
" transform="scale(0.015625)"/>
     </defs>
     <use xlink:href="#TimesNewRomanPSMT-47"/>
     <use xlink:href="#TimesNewRomanPSMT-53" x="72.216797"/>
     <use xlink:href="#TimesNewRomanPSMT-4d" x="127.832031"/>
     <use xlink:href="#TimesNewRomanPSMT-38" x="216.748047"/>
     <use xlink:href="#TimesNewRomanPSMT-4b" x="266.748047"/>
    </g>
   </g>
   <g id="text_26">
    <!-- Math -->
    <g transform="translate(57.689705 279.002327)scale(0.14 -0.14)">
     <defs>
      <path id="TimesNewRomanPSMT-61" d="M 1822 413 
Q 1381 72 1269 19 
Q 1100 -59 909 -59 
Q 613 -59 420 144 
Q 228 347 228 678 
Q 228 888 322 1041 
Q 450 1253 767 1440 
Q 1084 1628 1822 1897 
L 1822 2009 
Q 1822 2438 1686 2597 
Q 1550 2756 1291 2756 
Q 1094 2756 978 2650 
Q 859 2544 859 2406 
L 866 2225 
Q 866 2081 792 2003 
Q 719 1925 600 1925 
Q 484 1925 411 2006 
Q 338 2088 338 2228 
Q 338 2497 613 2722 
Q 888 2947 1384 2947 
Q 1766 2947 2009 2819 
Q 2194 2722 2281 2516 
Q 2338 2381 2338 1966 
L 2338 994 
Q 2338 584 2353 492 
Q 2369 400 2405 369 
Q 2441 338 2488 338 
Q 2538 338 2575 359 
Q 2641 400 2828 588 
L 2828 413 
Q 2478 -56 2159 -56 
Q 2006 -56 1915 50 
Q 1825 156 1822 413 
z
M 1822 616 
L 1822 1706 
Q 1350 1519 1213 1441 
Q 966 1303 859 1153 
Q 753 1003 753 825 
Q 753 600 887 451 
Q 1022 303 1197 303 
Q 1434 303 1822 616 
z
" transform="scale(0.015625)"/>
      <path id="TimesNewRomanPSMT-74" d="M 1031 3803 
L 1031 2863 
L 1700 2863 
L 1700 2644 
L 1031 2644 
L 1031 788 
Q 1031 509 1111 412 
Q 1191 316 1316 316 
Q 1419 316 1516 380 
Q 1613 444 1666 569 
L 1788 569 
Q 1678 263 1478 108 
Q 1278 -47 1066 -47 
Q 922 -47 784 33 
Q 647 113 581 261 
Q 516 409 516 719 
L 516 2644 
L 63 2644 
L 63 2747 
Q 234 2816 414 2980 
Q 594 3144 734 3369 
Q 806 3488 934 3803 
L 1031 3803 
z
" transform="scale(0.015625)"/>
      <path id="TimesNewRomanPSMT-68" d="M 1041 4444 
L 1041 2350 
Q 1388 2731 1591 2839 
Q 1794 2947 1997 2947 
Q 2241 2947 2416 2812 
Q 2591 2678 2675 2391 
Q 2734 2191 2734 1659 
L 2734 647 
Q 2734 375 2778 275 
Q 2809 200 2884 156 
Q 2959 113 3159 113 
L 3159 0 
L 1753 0 
L 1753 113 
L 1819 113 
Q 2019 113 2097 173 
Q 2175 234 2206 353 
Q 2216 403 2216 647 
L 2216 1659 
Q 2216 2128 2167 2275 
Q 2119 2422 2012 2495 
Q 1906 2569 1756 2569 
Q 1603 2569 1437 2487 
Q 1272 2406 1041 2159 
L 1041 647 
Q 1041 353 1073 281 
Q 1106 209 1195 161 
Q 1284 113 1503 113 
L 1503 0 
L 84 0 
L 84 113 
Q 275 113 384 172 
Q 447 203 484 290 
Q 522 378 522 647 
L 522 3238 
Q 522 3728 498 3840 
Q 475 3953 426 3993 
Q 378 4034 297 4034 
Q 231 4034 84 3984 
L 41 4094 
L 897 4444 
L 1041 4444 
z
" transform="scale(0.015625)"/>
     </defs>
     <use xlink:href="#TimesNewRomanPSMT-4d"/>
     <use xlink:href="#TimesNewRomanPSMT-61" x="88.916016"/>
     <use xlink:href="#TimesNewRomanPSMT-74" x="133.300781"/>
     <use xlink:href="#TimesNewRomanPSMT-68" x="161.083984"/>
    </g>
   </g>
   <g id="text_27">
    <!-- HumanEval -->
    <g transform="translate(149.292563 366.932651)scale(0.14 -0.14)">
     <defs>
      <path id="TimesNewRomanPSMT-48" d="M 1316 2272 
L 3284 2272 
L 3284 3484 
Q 3284 3809 3244 3913 
Q 3213 3991 3113 4047 
Q 2978 4122 2828 4122 
L 2678 4122 
L 2678 4238 
L 4491 4238 
L 4491 4122 
L 4341 4122 
Q 4191 4122 4056 4050 
Q 3956 4000 3920 3898 
Q 3884 3797 3884 3484 
L 3884 750 
Q 3884 428 3925 325 
Q 3956 247 4053 191 
Q 4191 116 4341 116 
L 4491 116 
L 4491 0 
L 2678 0 
L 2678 116 
L 2828 116 
Q 3088 116 3206 269 
Q 3284 369 3284 750 
L 3284 2041 
L 1316 2041 
L 1316 750 
Q 1316 428 1356 325 
Q 1388 247 1488 191 
Q 1622 116 1772 116 
L 1925 116 
L 1925 0 
L 109 0 
L 109 116 
L 259 116 
Q 522 116 641 269 
Q 716 369 716 750 
L 716 3484 
Q 716 3809 675 3913 
Q 644 3991 547 4047 
Q 409 4122 259 4122 
L 109 4122 
L 109 4238 
L 1925 4238 
L 1925 4122 
L 1772 4122 
Q 1622 4122 1488 4050 
Q 1391 4000 1353 3898 
Q 1316 3797 1316 3484 
L 1316 2272 
z
" transform="scale(0.015625)"/>
      <path id="TimesNewRomanPSMT-75" d="M 2709 2863 
L 2709 1128 
Q 2709 631 2732 520 
Q 2756 409 2807 365 
Q 2859 322 2928 322 
Q 3025 322 3147 375 
L 3191 266 
L 2334 -88 
L 2194 -88 
L 2194 519 
Q 1825 119 1631 15 
Q 1438 -88 1222 -88 
Q 981 -88 804 51 
Q 628 191 559 409 
Q 491 628 491 1028 
L 491 2306 
Q 491 2509 447 2587 
Q 403 2666 317 2708 
Q 231 2750 6 2747 
L 6 2863 
L 1009 2863 
L 1009 947 
Q 1009 547 1148 422 
Q 1288 297 1484 297 
Q 1619 297 1789 381 
Q 1959 466 2194 703 
L 2194 2325 
Q 2194 2569 2105 2655 
Q 2016 2741 1734 2747 
L 1734 2863 
L 2709 2863 
z
" transform="scale(0.015625)"/>
      <path id="TimesNewRomanPSMT-6d" d="M 1050 2338 
Q 1363 2650 1419 2697 
Q 1559 2816 1721 2881 
Q 1884 2947 2044 2947 
Q 2313 2947 2506 2790 
Q 2700 2634 2766 2338 
Q 3088 2713 3309 2830 
Q 3531 2947 3766 2947 
Q 3994 2947 4170 2830 
Q 4347 2713 4450 2447 
Q 4519 2266 4519 1878 
L 4519 647 
Q 4519 378 4559 278 
Q 4591 209 4675 161 
Q 4759 113 4950 113 
L 4950 0 
L 3538 0 
L 3538 113 
L 3597 113 
Q 3781 113 3884 184 
Q 3956 234 3988 344 
Q 4000 397 4000 647 
L 4000 1878 
Q 4000 2228 3916 2372 
Q 3794 2572 3525 2572 
Q 3359 2572 3192 2489 
Q 3025 2406 2788 2181 
L 2781 2147 
L 2788 2013 
L 2788 647 
Q 2788 353 2820 281 
Q 2853 209 2943 161 
Q 3034 113 3253 113 
L 3253 0 
L 1806 0 
L 1806 113 
Q 2044 113 2133 169 
Q 2222 225 2256 338 
Q 2272 391 2272 647 
L 2272 1878 
Q 2272 2228 2169 2381 
Q 2031 2581 1784 2581 
Q 1616 2581 1450 2491 
Q 1191 2353 1050 2181 
L 1050 647 
Q 1050 366 1089 281 
Q 1128 197 1204 155 
Q 1281 113 1516 113 
L 1516 0 
L 100 0 
L 100 113 
Q 297 113 375 155 
Q 453 197 493 289 
Q 534 381 534 647 
L 534 1741 
Q 534 2213 506 2350 
Q 484 2453 437 2492 
Q 391 2531 309 2531 
Q 222 2531 100 2484 
L 53 2597 
L 916 2947 
L 1050 2947 
L 1050 2338 
z
" transform="scale(0.015625)"/>
      <path id="TimesNewRomanPSMT-6e" d="M 1034 2341 
Q 1538 2947 1994 2947 
Q 2228 2947 2397 2830 
Q 2566 2713 2666 2444 
Q 2734 2256 2734 1869 
L 2734 647 
Q 2734 375 2778 278 
Q 2813 200 2889 156 
Q 2966 113 3172 113 
L 3172 0 
L 1756 0 
L 1756 113 
L 1816 113 
Q 2016 113 2095 173 
Q 2175 234 2206 353 
Q 2219 400 2219 647 
L 2219 1819 
Q 2219 2209 2117 2386 
Q 2016 2563 1775 2563 
Q 1403 2563 1034 2156 
L 1034 647 
Q 1034 356 1069 288 
Q 1113 197 1189 155 
Q 1266 113 1500 113 
L 1500 0 
L 84 0 
L 84 113 
L 147 113 
Q 366 113 442 223 
Q 519 334 519 647 
L 519 1709 
Q 519 2225 495 2337 
Q 472 2450 423 2490 
Q 375 2531 294 2531 
Q 206 2531 84 2484 
L 38 2597 
L 900 2947 
L 1034 2947 
L 1034 2341 
z
" transform="scale(0.015625)"/>
      <path id="TimesNewRomanPSMT-45" d="M 1338 4006 
L 1338 2331 
L 2269 2331 
Q 2631 2331 2753 2441 
Q 2916 2584 2934 2947 
L 3050 2947 
L 3050 1472 
L 2934 1472 
Q 2891 1781 2847 1869 
Q 2791 1978 2662 2040 
Q 2534 2103 2269 2103 
L 1338 2103 
L 1338 706 
Q 1338 425 1363 364 
Q 1388 303 1450 267 
Q 1513 231 1688 231 
L 2406 231 
Q 2766 231 2928 281 
Q 3091 331 3241 478 
Q 3434 672 3638 1063 
L 3763 1063 
L 3397 0 
L 131 0 
L 131 116 
L 281 116 
Q 431 116 566 188 
Q 666 238 702 338 
Q 738 438 738 747 
L 738 3500 
Q 738 3903 656 3997 
Q 544 4122 281 4122 
L 131 4122 
L 131 4238 
L 3397 4238 
L 3444 3309 
L 3322 3309 
Q 3256 3644 3176 3769 
Q 3097 3894 2941 3959 
Q 2816 4006 2500 4006 
L 1338 4006 
z
" transform="scale(0.015625)"/>
      <path id="TimesNewRomanPSMT-76" d="M 53 2863 
L 1400 2863 
L 1400 2747 
L 1313 2747 
Q 1191 2747 1127 2687 
Q 1063 2628 1063 2528 
Q 1063 2419 1128 2269 
L 1794 688 
L 2463 2328 
Q 2534 2503 2534 2594 
Q 2534 2638 2509 2666 
Q 2475 2713 2422 2730 
Q 2369 2747 2206 2747 
L 2206 2863 
L 3141 2863 
L 3141 2747 
Q 2978 2734 2916 2681 
Q 2806 2588 2719 2369 
L 1703 -88 
L 1575 -88 
L 553 2328 
Q 484 2497 421 2570 
Q 359 2644 263 2694 
Q 209 2722 53 2747 
L 53 2863 
z
" transform="scale(0.015625)"/>
      <path id="TimesNewRomanPSMT-6c" d="M 1184 4444 
L 1184 647 
Q 1184 378 1223 290 
Q 1263 203 1344 158 
Q 1425 113 1647 113 
L 1647 0 
L 244 0 
L 244 113 
Q 441 113 512 153 
Q 584 194 625 287 
Q 666 381 666 647 
L 666 3247 
Q 666 3731 644 3842 
Q 622 3953 573 3993 
Q 525 4034 450 4034 
Q 369 4034 244 3984 
L 191 4094 
L 1044 4444 
L 1184 4444 
z
" transform="scale(0.015625)"/>
     </defs>
     <use xlink:href="#TimesNewRomanPSMT-48"/>
     <use xlink:href="#TimesNewRomanPSMT-75" x="72.216797"/>
     <use xlink:href="#TimesNewRomanPSMT-6d" x="122.216797"/>
     <use xlink:href="#TimesNewRomanPSMT-61" x="200"/>
     <use xlink:href="#TimesNewRomanPSMT-6e" x="244.384766"/>
     <use xlink:href="#TimesNewRomanPSMT-45" x="294.384766"/>
     <use xlink:href="#TimesNewRomanPSMT-76" x="355.46875"/>
     <use xlink:href="#TimesNewRomanPSMT-61" x="405.46875"/>
     <use xlink:href="#TimesNewRomanPSMT-6c" x="449.853516"/>
    </g>
   </g>
   <g id="text_28">
    <!-- MBPP -->
    <g transform="translate(301.541736 335.550682)scale(0.14 -0.14)">
     <defs>
      <path id="TimesNewRomanPSMT-42" d="M 2956 2163 
Q 3397 2069 3616 1863 
Q 3919 1575 3919 1159 
Q 3919 844 3719 555 
Q 3519 266 3170 133 
Q 2822 0 2106 0 
L 106 0 
L 106 116 
L 266 116 
Q 531 116 647 284 
Q 719 394 719 750 
L 719 3488 
Q 719 3881 628 3984 
Q 506 4122 266 4122 
L 106 4122 
L 106 4238 
L 1938 4238 
Q 2450 4238 2759 4163 
Q 3228 4050 3475 3764 
Q 3722 3478 3722 3106 
Q 3722 2788 3528 2536 
Q 3334 2284 2956 2163 
z
M 1319 2331 
Q 1434 2309 1582 2298 
Q 1731 2288 1909 2288 
Q 2366 2288 2595 2386 
Q 2825 2484 2947 2687 
Q 3069 2891 3069 3131 
Q 3069 3503 2766 3765 
Q 2463 4028 1881 4028 
Q 1569 4028 1319 3959 
L 1319 2331 
z
M 1319 306 
Q 1681 222 2034 222 
Q 2600 222 2897 476 
Q 3194 731 3194 1106 
Q 3194 1353 3059 1581 
Q 2925 1809 2622 1940 
Q 2319 2072 1872 2072 
Q 1678 2072 1540 2065 
Q 1403 2059 1319 2044 
L 1319 306 
z
" transform="scale(0.015625)"/>
      <path id="TimesNewRomanPSMT-50" d="M 1313 1984 
L 1313 750 
Q 1313 350 1400 253 
Q 1519 116 1759 116 
L 1922 116 
L 1922 0 
L 106 0 
L 106 116 
L 266 116 
Q 534 116 650 291 
Q 713 388 713 750 
L 713 3488 
Q 713 3888 628 3984 
Q 506 4122 266 4122 
L 106 4122 
L 106 4238 
L 1659 4238 
Q 2228 4238 2556 4120 
Q 2884 4003 3109 3725 
Q 3334 3447 3334 3066 
Q 3334 2547 2992 2222 
Q 2650 1897 2025 1897 
Q 1872 1897 1694 1919 
Q 1516 1941 1313 1984 
z
M 1313 2163 
Q 1478 2131 1606 2115 
Q 1734 2100 1825 2100 
Q 2150 2100 2386 2351 
Q 2622 2603 2622 3003 
Q 2622 3278 2509 3514 
Q 2397 3750 2190 3867 
Q 1984 3984 1722 3984 
Q 1563 3984 1313 3925 
L 1313 2163 
z
" transform="scale(0.015625)"/>
     </defs>
     <use xlink:href="#TimesNewRomanPSMT-4d"/>
     <use xlink:href="#TimesNewRomanPSMT-42" x="88.916016"/>
     <use xlink:href="#TimesNewRomanPSMT-50" x="155.615234"/>
     <use xlink:href="#TimesNewRomanPSMT-50" x="211.230469"/>
    </g>
   </g>
   <g id="patch_6">
    <path d="M 420.214035 197.053996 
Q 420.289957 200.090249 420.309983 200.891133 
" style="fill: none; stroke: #000000; stroke-width: 2; stroke-linecap: round"/>
    <path d="M 422.209369 196.842388 
L 420.309983 200.891133 
L 418.210619 196.942378 
" style="fill: none; stroke: #000000; stroke-width: 2; stroke-linecap: round"/>
   </g>
   <g id="patch_7">
    <path d="M 181.961007 7.053546 
Q 178.983985 7.655157 178.198724 7.813847 
" style="fill: none; stroke: #000000; stroke-width: 2; stroke-linecap: round"/>
    <path d="M 182.515629 8.981895 
L 178.198724 7.813847 
L 181.723306 5.061152 
" style="fill: none; stroke: #000000; stroke-width: 2; stroke-linecap: round"/>
   </g>
   <g id="text_29">
    <!-- General Tasks -->
    <g transform="translate(310.793197 17.255747)rotate(-321.428571)scale(0.16 -0.16)">
     <defs>
      <path id="TimesNewRomanPSMT-65" d="M 681 1784 
Q 678 1147 991 784 
Q 1303 422 1725 422 
Q 2006 422 2214 576 
Q 2422 731 2563 1106 
L 2659 1044 
Q 2594 616 2278 264 
Q 1963 -88 1488 -88 
Q 972 -88 605 314 
Q 238 716 238 1394 
Q 238 2128 614 2539 
Q 991 2950 1559 2950 
Q 2041 2950 2350 2633 
Q 2659 2316 2659 1784 
L 681 1784 
z
M 681 1966 
L 2006 1966 
Q 1991 2241 1941 2353 
Q 1863 2528 1708 2628 
Q 1553 2728 1384 2728 
Q 1125 2728 920 2526 
Q 716 2325 681 1966 
z
" transform="scale(0.015625)"/>
      <path id="TimesNewRomanPSMT-20" transform="scale(0.015625)"/>
      <path id="TimesNewRomanPSMT-54" d="M 3703 4238 
L 3750 3244 
L 3631 3244 
Q 3597 3506 3538 3619 
Q 3441 3800 3280 3886 
Q 3119 3972 2856 3972 
L 2259 3972 
L 2259 734 
Q 2259 344 2344 247 
Q 2463 116 2709 116 
L 2856 116 
L 2856 0 
L 1059 0 
L 1059 116 
L 1209 116 
Q 1478 116 1591 278 
Q 1659 378 1659 734 
L 1659 3972 
L 1150 3972 
Q 853 3972 728 3928 
Q 566 3869 450 3700 
Q 334 3531 313 3244 
L 194 3244 
L 244 4238 
L 3703 4238 
z
" transform="scale(0.015625)"/>
      <path id="TimesNewRomanPSMT-73" d="M 2050 2947 
L 2050 1972 
L 1947 1972 
Q 1828 2431 1642 2597 
Q 1456 2763 1169 2763 
Q 950 2763 815 2647 
Q 681 2531 681 2391 
Q 681 2216 781 2091 
Q 878 1963 1175 1819 
L 1631 1597 
Q 2266 1288 2266 781 
Q 2266 391 1970 151 
Q 1675 -88 1309 -88 
Q 1047 -88 709 6 
Q 606 38 541 38 
Q 469 38 428 -44 
L 325 -44 
L 325 978 
L 428 978 
Q 516 541 762 319 
Q 1009 97 1316 97 
Q 1531 97 1667 223 
Q 1803 350 1803 528 
Q 1803 744 1651 891 
Q 1500 1038 1047 1263 
Q 594 1488 453 1669 
Q 313 1847 313 2119 
Q 313 2472 555 2709 
Q 797 2947 1181 2947 
Q 1350 2947 1591 2875 
Q 1750 2828 1803 2828 
Q 1853 2828 1881 2850 
Q 1909 2872 1947 2947 
L 2050 2947 
z
" transform="scale(0.015625)"/>
      <path id="TimesNewRomanPSMT-6b" d="M 1047 4444 
L 1047 1597 
L 1775 2259 
Q 2006 2472 2044 2528 
Q 2069 2566 2069 2603 
Q 2069 2666 2017 2711 
Q 1966 2756 1847 2763 
L 1847 2863 
L 3091 2863 
L 3091 2763 
Q 2834 2756 2664 2684 
Q 2494 2613 2291 2428 
L 1556 1750 
L 2291 822 
Q 2597 438 2703 334 
Q 2853 188 2966 144 
Q 3044 113 3238 113 
L 3238 0 
L 1847 0 
L 1847 113 
Q 1966 116 2008 148 
Q 2050 181 2050 241 
Q 2050 313 1925 472 
L 1047 1594 
L 1047 644 
Q 1047 366 1086 278 
Q 1125 191 1197 153 
Q 1269 116 1509 113 
L 1509 0 
L 53 0 
L 53 113 
Q 272 113 381 166 
Q 447 200 481 272 
Q 528 375 528 628 
L 528 3234 
Q 528 3731 506 3842 
Q 484 3953 434 3995 
Q 384 4038 303 4038 
Q 238 4038 106 3984 
L 53 4094 
L 903 4444 
L 1047 4444 
z
" transform="scale(0.015625)"/>
     </defs>
     <use xlink:href="#TimesNewRomanPSMT-47"/>
     <use xlink:href="#TimesNewRomanPSMT-65" x="72.216797"/>
     <use xlink:href="#TimesNewRomanPSMT-6e" x="116.601562"/>
     <use xlink:href="#TimesNewRomanPSMT-65" x="166.601562"/>
     <use xlink:href="#TimesNewRomanPSMT-72" x="210.986328"/>
     <use xlink:href="#TimesNewRomanPSMT-61" x="244.287109"/>
     <use xlink:href="#TimesNewRomanPSMT-6c" x="288.671875"/>
     <use xlink:href="#TimesNewRomanPSMT-20" x="316.455078"/>
     <use xlink:href="#TimesNewRomanPSMT-54" x="339.705078"/>
     <use xlink:href="#TimesNewRomanPSMT-61" x="393.789062"/>
     <use xlink:href="#TimesNewRomanPSMT-73" x="438.173828"/>
     <use xlink:href="#TimesNewRomanPSMT-6b" x="477.089844"/>
     <use xlink:href="#TimesNewRomanPSMT-73" x="527.089844"/>
    </g>
   </g>
   <g id="patch_8">
    <path d="M 34.004427 125.044982 
Q 35.253404 122.276471 35.582852 121.54621 
" style="fill: none; stroke: #000000; stroke-width: 2; stroke-linecap: round"/>
    <path d="M 32.11488 124.369891 
L 35.582852 121.54621 
L 35.761013 126.014796 
" style="fill: none; stroke: #000000; stroke-width: 2; stroke-linecap: round"/>
   </g>
   <g id="patch_9">
    <path d="M 34.004427 285.203818 
Q 35.253404 287.972329 35.582852 288.70259 
" style="fill: none; stroke: #000000; stroke-width: 2; stroke-linecap: round"/>
    <path d="M 35.761013 284.234004 
L 35.582852 288.70259 
L 32.11488 285.878909 
" style="fill: none; stroke: #000000; stroke-width: 2; stroke-linecap: round"/>
   </g>
   <g id="text_30">
    <!-- Mathematics -->
    <g transform="translate(14.71 246.4469)rotate(-90)scale(0.16 -0.16)">
     <defs>
      <path id="TimesNewRomanPSMT-69" d="M 928 4444 
Q 1059 4444 1151 4351 
Q 1244 4259 1244 4128 
Q 1244 3997 1151 3903 
Q 1059 3809 928 3809 
Q 797 3809 703 3903 
Q 609 3997 609 4128 
Q 609 4259 701 4351 
Q 794 4444 928 4444 
z
M 1188 2947 
L 1188 647 
Q 1188 378 1227 289 
Q 1266 200 1342 156 
Q 1419 113 1622 113 
L 1622 0 
L 231 0 
L 231 113 
Q 441 113 512 153 
Q 584 194 626 287 
Q 669 381 669 647 
L 669 1750 
Q 669 2216 641 2353 
Q 619 2453 572 2492 
Q 525 2531 444 2531 
Q 356 2531 231 2484 
L 188 2597 
L 1050 2947 
L 1188 2947 
z
" transform="scale(0.015625)"/>
      <path id="TimesNewRomanPSMT-63" d="M 2631 1088 
Q 2516 522 2178 217 
Q 1841 -88 1431 -88 
Q 944 -88 581 321 
Q 219 731 219 1428 
Q 219 2103 620 2525 
Q 1022 2947 1584 2947 
Q 2006 2947 2278 2723 
Q 2550 2500 2550 2259 
Q 2550 2141 2473 2067 
Q 2397 1994 2259 1994 
Q 2075 1994 1981 2113 
Q 1928 2178 1911 2362 
Q 1894 2547 1784 2644 
Q 1675 2738 1481 2738 
Q 1169 2738 978 2506 
Q 725 2200 725 1697 
Q 725 1184 976 792 
Q 1228 400 1656 400 
Q 1963 400 2206 609 
Q 2378 753 2541 1131 
L 2631 1088 
z
" transform="scale(0.015625)"/>
     </defs>
     <use xlink:href="#TimesNewRomanPSMT-4d"/>
     <use xlink:href="#TimesNewRomanPSMT-61" x="88.916016"/>
     <use xlink:href="#TimesNewRomanPSMT-74" x="133.300781"/>
     <use xlink:href="#TimesNewRomanPSMT-68" x="161.083984"/>
     <use xlink:href="#TimesNewRomanPSMT-65" x="211.083984"/>
     <use xlink:href="#TimesNewRomanPSMT-6d" x="255.46875"/>
     <use xlink:href="#TimesNewRomanPSMT-61" x="333.251953"/>
     <use xlink:href="#TimesNewRomanPSMT-74" x="377.636719"/>
     <use xlink:href="#TimesNewRomanPSMT-69" x="405.419922"/>
     <use xlink:href="#TimesNewRomanPSMT-63" x="433.203125"/>
     <use xlink:href="#TimesNewRomanPSMT-73" x="477.587891"/>
    </g>
   </g>
   <g id="patch_10">
    <path d="M 181.961007 403.195254 
Q 178.983985 402.593643 178.198724 402.434953 
" style="fill: none; stroke: #000000; stroke-width: 2; stroke-linecap: round"/>
    <path d="M 181.723306 405.187648 
L 178.198724 402.434953 
L 182.515629 401.266905 
" style="fill: none; stroke: #000000; stroke-width: 2; stroke-linecap: round"/>
   </g>
   <g id="patch_11">
    <path d="M 338.104327 367.55656 
Q 340.525503 365.722845 341.164145 365.23916 
" style="fill: none; stroke: #000000; stroke-width: 2; stroke-linecap: round"/>
    <path d="M 336.767951 366.059819 
L 341.164145 365.23916 
L 339.182956 369.24851 
" style="fill: none; stroke: #000000; stroke-width: 2; stroke-linecap: round"/>
   </g>
   <g id="text_31">
    <!-- Code -->
    <g transform="translate(249.572616 415.439163)rotate(-12.857143)scale(0.16 -0.16)">
     <defs>
      <path id="TimesNewRomanPSMT-64" d="M 2222 322 
Q 2013 103 1813 7 
Q 1613 -88 1381 -88 
Q 913 -88 563 304 
Q 213 697 213 1313 
Q 213 1928 600 2439 
Q 988 2950 1597 2950 
Q 1975 2950 2222 2709 
L 2222 3238 
Q 2222 3728 2198 3840 
Q 2175 3953 2125 3993 
Q 2075 4034 2000 4034 
Q 1919 4034 1784 3984 
L 1744 4094 
L 2597 4444 
L 2738 4444 
L 2738 1134 
Q 2738 631 2761 520 
Q 2784 409 2836 365 
Q 2888 322 2956 322 
Q 3041 322 3181 375 
L 3216 266 
L 2366 -88 
L 2222 -88 
L 2222 322 
z
M 2222 541 
L 2222 2016 
Q 2203 2228 2109 2403 
Q 2016 2578 1861 2667 
Q 1706 2756 1559 2756 
Q 1284 2756 1069 2509 
Q 784 2184 784 1559 
Q 784 928 1059 592 
Q 1334 256 1672 256 
Q 1956 256 2222 541 
z
" transform="scale(0.015625)"/>
     </defs>
     <use xlink:href="#TimesNewRomanPSMT-43"/>
     <use xlink:href="#TimesNewRomanPSMT-6f" x="66.699219"/>
     <use xlink:href="#TimesNewRomanPSMT-64" x="116.699219"/>
     <use xlink:href="#TimesNewRomanPSMT-65" x="166.699219"/>
    </g>
   </g>
   <g id="legend_1">
    <g id="line2d_17">
     <path d="M 345.406077 232.650097 
L 359.406077 232.650097 
L 373.406077 232.650097 
" style="fill: none; stroke: #ff0000; stroke-width: 2; stroke-linecap: square"/>
    </g>
    <g id="text_32">
     <!-- LLaDA 8B Instruct -->
     <g transform="translate(384.606077 237.550097)scale(0.14 -0.14)">
      <defs>
       <path id="TimesNewRomanPSMT-44" d="M 109 0 
L 109 116 
L 269 116 
Q 538 116 650 288 
Q 719 391 719 750 
L 719 3488 
Q 719 3884 631 3984 
Q 509 4122 269 4122 
L 109 4122 
L 109 4238 
L 1834 4238 
Q 2784 4238 3279 4022 
Q 3775 3806 4076 3303 
Q 4378 2800 4378 2141 
Q 4378 1256 3841 663 
Q 3238 0 2003 0 
L 109 0 
z
M 1319 306 
Q 1716 219 1984 219 
Q 2709 219 3187 728 
Q 3666 1238 3666 2109 
Q 3666 2988 3187 3494 
Q 2709 4000 1959 4000 
Q 1678 4000 1319 3909 
L 1319 306 
z
" transform="scale(0.015625)"/>
       <path id="TimesNewRomanPSMT-49" d="M 1975 116 
L 1975 0 
L 159 0 
L 159 116 
L 309 116 
Q 572 116 691 269 
Q 766 369 766 750 
L 766 3488 
Q 766 3809 725 3913 
Q 694 3991 597 4047 
Q 459 4122 309 4122 
L 159 4122 
L 159 4238 
L 1975 4238 
L 1975 4122 
L 1822 4122 
Q 1563 4122 1444 3969 
Q 1366 3869 1366 3488 
L 1366 750 
Q 1366 428 1406 325 
Q 1438 247 1538 191 
Q 1672 116 1822 116 
L 1975 116 
z
" transform="scale(0.015625)"/>
      </defs>
      <use xlink:href="#TimesNewRomanPSMT-4c"/>
      <use xlink:href="#TimesNewRomanPSMT-4c" x="61.083984"/>
      <use xlink:href="#TimesNewRomanPSMT-61" x="122.167969"/>
      <use xlink:href="#TimesNewRomanPSMT-44" x="166.552734"/>
      <use xlink:href="#TimesNewRomanPSMT-41" x="238.769531"/>
      <use xlink:href="#TimesNewRomanPSMT-20" x="305.486328"/>
      <use xlink:href="#TimesNewRomanPSMT-38" x="330.486328"/>
      <use xlink:href="#TimesNewRomanPSMT-42" x="380.486328"/>
      <use xlink:href="#TimesNewRomanPSMT-20" x="447.185547"/>
      <use xlink:href="#TimesNewRomanPSMT-49" x="472.185547"/>
      <use xlink:href="#TimesNewRomanPSMT-6e" x="505.486328"/>
      <use xlink:href="#TimesNewRomanPSMT-73" x="555.486328"/>
      <use xlink:href="#TimesNewRomanPSMT-74" x="594.402344"/>
      <use xlink:href="#TimesNewRomanPSMT-72" x="622.185547"/>
      <use xlink:href="#TimesNewRomanPSMT-75" x="655.486328"/>
      <use xlink:href="#TimesNewRomanPSMT-63" x="705.486328"/>
      <use xlink:href="#TimesNewRomanPSMT-74" x="749.871094"/>
     </g>
    </g>
    <g id="line2d_18">
     <path d="M 345.406077 252.444785 
L 359.406077 252.444785 
L 373.406077 252.444785 
" style="fill: none; stroke: #9400d3; stroke-width: 2; stroke-linecap: square"/>
    </g>
    <g id="text_33">
     <!-- LLaMA 3 8B Instruct -->
     <g transform="translate(384.606077 257.344785)scale(0.14 -0.14)">
      <use xlink:href="#TimesNewRomanPSMT-4c"/>
      <use xlink:href="#TimesNewRomanPSMT-4c" x="61.083984"/>
      <use xlink:href="#TimesNewRomanPSMT-61" x="122.167969"/>
      <use xlink:href="#TimesNewRomanPSMT-4d" x="166.552734"/>
      <use xlink:href="#TimesNewRomanPSMT-41" x="255.46875"/>
      <use xlink:href="#TimesNewRomanPSMT-20" x="322.185547"/>
      <use xlink:href="#TimesNewRomanPSMT-33" x="347.185547"/>
      <use xlink:href="#TimesNewRomanPSMT-20" x="397.185547"/>
      <use xlink:href="#TimesNewRomanPSMT-38" x="422.185547"/>
      <use xlink:href="#TimesNewRomanPSMT-42" x="472.185547"/>
      <use xlink:href="#TimesNewRomanPSMT-20" x="538.884766"/>
      <use xlink:href="#TimesNewRomanPSMT-49" x="563.884766"/>
      <use xlink:href="#TimesNewRomanPSMT-6e" x="597.185547"/>
      <use xlink:href="#TimesNewRomanPSMT-73" x="647.185547"/>
      <use xlink:href="#TimesNewRomanPSMT-74" x="686.101562"/>
      <use xlink:href="#TimesNewRomanPSMT-72" x="713.884766"/>
      <use xlink:href="#TimesNewRomanPSMT-75" x="747.185547"/>
      <use xlink:href="#TimesNewRomanPSMT-63" x="797.185547"/>
      <use xlink:href="#TimesNewRomanPSMT-74" x="841.570312"/>
     </g>
    </g>
    <g id="line2d_19">
     <path d="M 345.406077 272.239472 
L 359.406077 272.239472 
L 373.406077 272.239472 
" style="fill: none; stroke: #0000ff; stroke-width: 2; stroke-linecap: square"/>
    </g>
    <g id="text_34">
     <!-- LLaMA 2 7B Instruct -->
     <g transform="translate(384.606077 277.139472)scale(0.14 -0.14)">
      <use xlink:href="#TimesNewRomanPSMT-4c"/>
      <use xlink:href="#TimesNewRomanPSMT-4c" x="61.083984"/>
      <use xlink:href="#TimesNewRomanPSMT-61" x="122.167969"/>
      <use xlink:href="#TimesNewRomanPSMT-4d" x="166.552734"/>
      <use xlink:href="#TimesNewRomanPSMT-41" x="255.46875"/>
      <use xlink:href="#TimesNewRomanPSMT-20" x="322.185547"/>
      <use xlink:href="#TimesNewRomanPSMT-32" x="347.185547"/>
      <use xlink:href="#TimesNewRomanPSMT-20" x="397.185547"/>
      <use xlink:href="#TimesNewRomanPSMT-37" x="422.185547"/>
      <use xlink:href="#TimesNewRomanPSMT-42" x="472.185547"/>
      <use xlink:href="#TimesNewRomanPSMT-20" x="538.884766"/>
      <use xlink:href="#TimesNewRomanPSMT-49" x="563.884766"/>
      <use xlink:href="#TimesNewRomanPSMT-6e" x="597.185547"/>
      <use xlink:href="#TimesNewRomanPSMT-73" x="647.185547"/>
      <use xlink:href="#TimesNewRomanPSMT-74" x="686.101562"/>
      <use xlink:href="#TimesNewRomanPSMT-72" x="713.884766"/>
      <use xlink:href="#TimesNewRomanPSMT-75" x="747.185547"/>
      <use xlink:href="#TimesNewRomanPSMT-63" x="797.185547"/>
      <use xlink:href="#TimesNewRomanPSMT-74" x="841.570312"/>
     </g>
    </g>
   </g>
  </g>
 </g>
 <defs>
  <clipPath id="p9bf21c1285">
   <path d="M 420.415837 205.1244 
C 420.415837 178.660458 415.203018 152.453845 405.075706 128.004351 
C 394.948394 103.554857 380.10354 81.337963 361.390707 62.62513 
C 342.677874 43.912298 320.46098 29.067444 296.011486 18.940132 
C 271.561992 8.812819 245.355379 3.6 218.891437 3.6 
C 192.427495 3.6 166.220882 8.812819 141.771388 18.940132 
C 117.321894 29.067444 95.105 43.912298 76.392167 62.62513 
C 57.679335 81.337963 42.834481 103.554857 32.707169 128.004351 
C 22.579857 152.453845 17.367037 178.660458 17.367037 205.1244 
C 17.367037 231.588342 22.579857 257.794955 32.707169 282.244449 
C 42.834481 306.693943 57.679335 328.910837 76.392167 347.62367 
C 95.105 366.336502 117.321894 381.181356 141.771388 391.308668 
C 166.220882 401.435981 192.427495 406.6488 218.891437 406.6488 
C 245.355379 406.6488 271.561992 401.435981 296.011486 391.308668 
C 320.46098 381.181356 342.677874 366.336502 361.390707 347.62367 
C 380.10354 328.910837 394.948394 306.693943 405.075706 282.244449 
C 415.203018 257.794955 420.415837 231.588342 420.415837 205.1244 
M 218.891437 205.1244 
C 218.891437 205.1244 218.891437 205.1244 218.891437 205.1244 
C 218.891437 205.1244 218.891437 205.1244 218.891437 205.1244 
C 218.891437 205.1244 218.891437 205.1244 218.891437 205.1244 
C 218.891437 205.1244 218.891437 205.1244 218.891437 205.1244 
C 218.891437 205.1244 218.891437 205.1244 218.891437 205.1244 
C 218.891437 205.1244 218.891437 205.1244 218.891437 205.1244 
C 218.891437 205.1244 218.891437 205.1244 218.891437 205.1244 
C 218.891437 205.1244 218.891437 205.1244 218.891437 205.1244 
C 218.891437 205.1244 218.891437 205.1244 218.891437 205.1244 
C 218.891437 205.1244 218.891437 205.1244 218.891437 205.1244 
C 218.891437 205.1244 218.891437 205.1244 218.891437 205.1244 
C 218.891437 205.1244 218.891437 205.1244 218.891437 205.1244 
C 218.891437 205.1244 218.891437 205.1244 218.891437 205.1244 
C 218.891437 205.1244 218.891437 205.1244 218.891437 205.1244 
C 218.891437 205.1244 218.891437 205.1244 218.891437 205.1244 
C 218.891437 205.1244 218.891437 205.1244 218.891437 205.1244 
M 420.415837 205.1244 
z
"/>
  </clipPath>
 </defs>
</svg>
